{
    "asset" : {
        "generator" : "Khronos glTF Blender I/O v1.1.46",
        "version" : "2.0"
    },
    "scene" : 0,
    "scenes" : [
        {
            "name" : "Scene",
            "nodes" : [
                0
            ]
        }
    ],
    "nodes" : [
        {
            "mesh" : 0,
            "name" : "Arch_Door"
        }
    ],
    "materials" : [
        {
            "doubleSided" : true,
            "emissiveFactor" : [
                0,
                0,
                0
            ],
            "name" : "Atlas",
            "pbrMetallicRoughness" : {
                "baseColorTexture" : {
                    "index" : 0,
                    "texCoord" : 0
                },
                "metallicFactor" : 0,
                "roughnessFactor" : 0.5
            }
        }
    ],
    "meshes" : [
        {
            "name" : "Cube.044",
            "primitives" : [
                {
                    "attributes" : {
                        "POSITION" : 0,
                        "NORMAL" : 1,
                        "TEXCOORD_0" : 2
                    },
                    "indices" : 3,
                    "material" : 0
                }
            ]
        }
    ],
    "textures" : [
        {
            "source" : 0
        }
    ],
    "images" : [
        {
            "bufferView" : 4,
            "mimeType" : "image/png",
            "name" : "map-maker-atlas"
        }
    ],
    "accessors" : [
        {
            "bufferView" : 0,
            "componentType" : 5126,
            "count" : 19474,
            "max" : [
                3.0084683895111084,
                4.012317657470703,
                0.523223876953125
            ],
            "min" : [
                -3.0062925815582275,
                -2.193450927734375e-05,
                -0.46938836574554443
            ],
            "type" : "VEC3"
        },
        {
            "bufferView" : 1,
            "componentType" : 5126,
            "count" : 19474,
            "type" : "VEC3"
        },
        {
            "bufferView" : 2,
            "componentType" : 5126,
            "count" : 19474,
            "type" : "VEC2"
        },
        {
            "bufferView" : 3,
            "componentType" : 5123,
            "count" : 30636,
            "type" : "SCALAR"
        }
    ],
    "bufferViews" : [
        {
            "buffer" : 0,
            "byteLength" : 233688,
            "byteOffset" : 0
        },
        {
            "buffer" : 0,
            "byteLength" : 233688,
            "byteOffset" : 233688
        },
        {
            "buffer" : 0,
            "byteLength" : 155792,
            "byteOffset" : 467376
        },
        {
            "buffer" : 0,
            "byteLength" : 61272,
            "byteOffset" : 623168
        },
        {
            "buffer" : 0,
            "byteLength" : 2669,
            "byteOffset" : 684440
        }
    ],
    "buffers" : [
        {
            "byteLength" : 687112,
            "uri" : "data:application/octet-stream;base64,"
        }
    ]
}
