{
    "asset" : {
        "generator" : "Khronos glTF Blender I/O v1.0.5",
        "version" : "2.0"
    },
    "scene" : 0,
    "scenes" : [
        {
            "name" : "Scene",
            "nodes" : [
                0
            ]
        }
    ],
    "nodes" : [
        {
            "mesh" : 0,
            "name" : "Column",
            "translation" : [
                0.010082781314849854,
                -0.05352652817964554,
                0.008515596389770508
            ]
        }
    ],
    "materials" : [
        {
            "doubleSided" : true,
            "name" : "Grey_Floor",
            "pbrMetallicRoughness" : {
                "baseColorFactor" : [
                    0.07406579703092575,
                    0.07146592438220978,
                    0.10246681421995163,
                    1
                ],
                "metallicFactor" : 0,
                "roughnessFactor" : 0.5
            }
        }
    ],
    "meshes" : [
        {
            "name" : "Cube.083",
            "primitives" : [
                {
                    "attributes" : {
                        "POSITION" : 0,
                        "NORMAL" : 1
                    },
                    "indices" : 2,
                    "material" : 0
                }
            ]
        }
    ],
    "accessors" : [
        {
            "bufferView" : 0,
            "componentType" : 5126,
            "count" : 10058,
            "max" : [
                0.9974011778831482,
                4.073400974273682,
                0.9920907020568848
            ],
            "min" : [
                -1.0173370838165283,
                -0.13648563623428345,
                -1.0084877014160156
            ],
            "type" : "VEC3"
        },
        {
            "bufferView" : 1,
            "componentType" : 5126,
            "count" : 10058,
            "type" : "VEC3"
        },
        {
            "bufferView" : 2,
            "componentType" : 5123,
            "count" : 15720,
            "type" : "SCALAR"
        }
    ],
    "bufferViews" : [
        {
            "buffer" : 0,
            "byteLength" : 120696,
            "byteOffset" : 0
        },
        {
            "buffer" : 0,
            "byteLength" : 120696,
            "byteOffset" : 120696
        },
        {
            "buffer" : 0,
            "byteLength" : 31440,
            "byteOffset" : 241392
        }
    ],
    "buffers" : [
        {
            "byteLength" : 272832,
            "uri" : "data:application/octet-stream;base64,"
        }
    ]
}
